<?xml version="1.0" encoding="UTF-8" standalone="no"?>
<!-- Created with Inkscape (http://www.inkscape.org/) -->

<svg
   xmlns:dc="http://purl.org/dc/elements/1.1/"
   xmlns:cc="http://creativecommons.org/ns#"
   xmlns:rdf="http://www.w3.org/1999/02/22-rdf-syntax-ns#"
   xmlns:svg="http://www.w3.org/2000/svg"
   xmlns="http://www.w3.org/2000/svg"
   xmlns:xlink="http://www.w3.org/1999/xlink"
   xmlns:sodipodi="http://sodipodi.sourceforge.net/DTD/sodipodi-0.dtd"
   xmlns:inkscape="http://www.inkscape.org/namespaces/inkscape"
   width="128"
   height="128"
   id="svg2"
   version="1.1"
   inkscape:version="0.92.2 5c3e80d, 2017-08-06"
   sodipodi:docname="harbour-speedcrunch.svg"
   inkscape:export-filename="/home/mikko/Code/SpeedCrunch/icons/harbour-speedcrunch128.png"
   inkscape:export-xdpi="96"
   inkscape:export-ydpi="96">
  <defs
     id="defs4">
    <linearGradient
       id="linearGradient3789-6">
      <stop
         style="stop-color:#df8021;stop-opacity:1"
         offset="0"
         id="stop3791-0" />
      <stop
         style="stop-color:#e0e020;stop-opacity:1"
         offset="1"
         id="stop3793-4" />
    </linearGradient>
    <linearGradient
       inkscape:collect="always"
       xlink:href="#linearGradient3789-6"
       id="linearGradient827"
       x1="97.699501"
       y1="95"
       x2="-2.3005004"
       y2="-4.999999"
       gradientUnits="userSpaceOnUse"
       gradientTransform="matrix(1.4988291,0,0,1.4988291,-2.4941453,-44.894614)" />
  </defs>
  <sodipodi:namedview
     id="base"
     pagecolor="#ffffff"
     bordercolor="#666666"
     borderopacity="1.0"
     inkscape:pageopacity="0.0"
     inkscape:pageshadow="2"
     inkscape:zoom="4"
     inkscape:cx="58.22758"
     inkscape:cy="48.616429"
     inkscape:document-units="px"
     inkscape:current-layer="layer2"
     showgrid="true"
     inkscape:window-width="1268"
     inkscape:window-height="986"
     inkscape:window-x="198"
     inkscape:window-y="15"
     inkscape:window-maximized="0"
     inkscape:snap-bbox="true"
     inkscape:snap-global="true"
     showguides="false">
    <inkscape:grid
       type="xygrid"
       id="grid2985"
       empspacing="5"
       visible="true"
       enabled="true"
       snapvisiblegridlinesonly="true"
       originx="-7.3005004"
       originy="-2.0258789e-06" />
  </sodipodi:namedview>
  <metadata
     id="metadata7">
    <rdf:RDF>
      <cc:Work
         rdf:about="">
        <dc:format>image/svg+xml</dc:format>
        <dc:type
           rdf:resource="http://purl.org/dc/dcmitype/StillImage" />
        <dc:title></dc:title>
      </cc:Work>
    </rdf:RDF>
  </metadata>
  <g
     inkscape:groupmode="layer"
     id="layer2"
     inkscape:label="Ebene"
     style="display:inline"
     transform="translate(-4.9999999,38)">
    <path
       inkscape:connector-curvature="0"
       style="fill:url(#linearGradient827);fill-opacity:1;stroke-width:1.49882901"
       id="path11"
       d="M 68.999253,90 C 104.34655,90 133,61.345387 133,26 c 0,-0.611523 0,-61.867167 0,-61.867167 C 133,-37.045246 132.04524,-38 130.86714,-38 H 7.1328578 C 5.9547647,-38 5,-37.045246 5,-35.867167 c 0,0 0,61.3141 0,61.867167 -0.00149,35.345387 28.651953,64 63.999253,64 z"
       inkscape:export-xdpi="90"
       inkscape:export-ydpi="90" />
    <path
       inkscape:connector-curvature="0"
       style="display:inline;fill:#202020;fill-opacity:1;stroke-width:1.17718041"
       id="path11-9"
       d="m 68.999241,75.997311 c 27.761767,0 50.266189,-22.505331 50.266189,-50.265599 0,-0.480292 0,-48.590474 0,-48.590474 0,-0.925263 -0.74987,-1.675127 -1.67515,-1.675127 H 20.409371 c -0.925272,0 -1.675144,0.749864 -1.675144,1.675127 0,0 0,48.156093 0,48.590474 -0.0012,27.760266 22.503243,50.265599 50.265014,50.265599 z" />
    <text
       xml:space="preserve"
       style="font-style:normal;font-variant:normal;font-weight:bold;font-stretch:normal;font-size:40px;line-height:1.25;font-family:'DejaVu Serif';-inkscape-font-specification:'DejaVu Serif, Bold';font-variant-ligatures:normal;font-variant-caps:normal;font-variant-numeric:normal;font-feature-settings:normal;text-align:start;letter-spacing:0px;word-spacing:0px;writing-mode:lr-tb;text-anchor:start;fill:#000000;fill-opacity:1;stroke:none"
       x="-2.3005004"
       y="50"
       id="text4617"><tspan
         sodipodi:role="line"
         id="tspan4619"
         x="-2.3005004"
         y="85.390625" /></text>
    <path
       inkscape:connector-curvature="0"
       style="fill:#a81818;fill-opacity:1;stroke:none;stroke-width:0.11016393"
       d="m 37.726867,8.0229834 2.27767,0.1687174 C 42.366562,5.5203632 43.2945,-2.3811691 57.213574,-0.83460763 56.707425,33.021077 41.860413,36.592231 42.788351,43.537707 c 0.337433,3.936706 3.458682,6.354969 6.833001,6.495567 10.65723,-0.365553 10.1792,-14.734532 13.497282,-50.95224107 H 76.868992 C 76.137887,11.847213 74.141413,24.613392 73.916459,37.126497 74.085177,45.44982 79.146657,49.892676 85.810941,49.948916 96.777485,50.314468 100.23616,37.52017 100.23616,32.065017 l -2.362023,1e-6 c -0.224954,4.499093 -2.390144,7.732816 -7.001716,7.929654 -12.569344,0.168716 -5.651986,-22.101801 -5.567629,-40.74492316 l 14.931368,0.084346 -0.0844,-9.53245584 C 38.091273,-10.498968 45.968525,-11.715641 37.726867,8.0229834 Z"
       id="path4688" />
  </g>
</svg>
